<?xml version="1.0" standalone="no"?>
<!DOCTYPE svg PUBLIC "-//W3C//DTD SVG 20010904//EN"
 "http://www.w3.org/TR/2001/REC-SVG-20010904/DTD/svg10.dtd">
<svg version="1.0" xmlns="http://www.w3.org/2000/svg"
 width="426.000000pt" height="114.000000pt" viewBox="0 0 426.000000 114.000000"
 preserveAspectRatio="xMidYMid meet">

<g transform="translate(0.000000,114.000000) scale(0.100000,-0.100000)"
fill="#000000" stroke="none">
<path d="M245 976 c-37 -16 -70 -52 -84 -89 -6 -16 -11 -89 -11 -164 0 -119 3
-140 21 -173 36 -63 79 -80 207 -80 118 0 137 -7 130 -52 -3 -23 -5 -23 -171
-28 -134 -4 -170 -8 -177 -20 -17 -26 -12 -166 6 -184 13 -14 54 -16 292 -16
316 0 323 1 377 81 l30 44 5 -53 c3 -31 12 -57 20 -62 8 -6 139 -10 290 -10
314 0 321 1 375 81 l30 44 5 -53 c3 -31 12 -57 20 -62 8 -6 77 -10 152 -10
111 0 140 3 152 16 14 13 16 55 16 302 0 279 6 339 30 302 6 -10 33 -17 87
-20 l78 -5 5 -288 c4 -241 7 -289 20 -297 8 -5 77 -10 152 -10 111 0 140 3
152 16 14 13 16 53 16 283 0 311 -3 301 92 301 41 0 61 5 79 21 l24 21 5 -312
c4 -262 7 -312 20 -320 8 -5 77 -10 152 -10 137 0 137 0 163 27 14 15 25 23
25 16 0 -6 7 -19 16 -27 12 -13 41 -16 154 -16 139 0 139 0 165 27 14 15 25
23 25 16 0 -6 7 -19 16 -27 12 -13 41 -16 154 -16 139 0 139 0 165 27 14 15
25 23 25 16 0 -6 7 -19 16 -27 23 -23 285 -23 308 0 14 13 16 59 16 351 0 326
-1 336 -22 374 -14 25 -37 46 -63 59 -38 18 -62 20 -311 20 -152 0 -276 -4
-284 -10 -10 -6 -17 -32 -20 -72 l-5 -63 -29 52 c-48 87 -69 93 -334 93 -131
0 -232 -4 -249 -11 -37 -14 -79 -54 -94 -91 -15 -36 -29 -20 -29 34 0 69 5 68
-348 68 -174 0 -323 -4 -330 -9 -7 -4 -17 -21 -21 -37 l-8 -29 -12 30 c-7 16
-18 33 -24 37 -17 11 -279 9 -297 -2 -10 -6 -17 -32 -20 -72 l-5 -63 -29 52
c-50 90 -63 93 -382 93 -148 0 -275 -4 -282 -9 -7 -4 -17 -21 -21 -37 l-8 -29
-12 30 c-7 16 -18 33 -24 37 -7 4 -133 8 -282 7 -203 0 -277 -3 -300 -13z
m623 -363 l-3 -68 -18 35 c-46 91 -72 104 -221 110 -119 5 -121 5 -124 29 -7
44 18 51 173 51 130 0 144 2 166 21 l24 21 3 -66 c2 -36 2 -96 0 -133z m-429
73 c16 -39 32 -44 163 -48 l128 -3 32 -33 33 -32 3 -124 c4 -140 -6 -173 -61
-206 -30 -18 -52 -20 -284 -20 l-253 0 0 60 0 60 160 0 c147 0 162 2 180 20
25 25 27 105 5 137 -14 20 -25 22 -145 25 l-130 3 -32 32 c-28 28 -33 41 -36
95 l-4 63 116 -3 c110 -3 117 -4 125 -26z m719 -13 c3 -31 5 -33 44 -33 47 0
78 22 78 54 0 20 3 21 117 16 l118 -5 3 -193 c3 -214 -2 -237 -61 -272 -30
-18 -52 -20 -284 -20 l-253 0 0 248 0 247 117 -5 118 -5 3 -32z m720 -210 l2
-243 -120 0 -120 0 0 248 0 247 117 -5 118 -5 3 -242z m540 0 l2 -243 -120 0
-120 0 0 248 0 247 117 -5 118 -5 3 -242z m540 210 l3 -33 60 0 59 0 0 38 0
37 117 -5 118 -5 3 -242 2 -243 -120 0 -120 0 0 150 0 150 -60 0 -60 0 0 -150
0 -150 -120 0 -120 0 0 248 0 247 117 -5 118 -5 3 -32z m720 0 c3 -31 5 -33
44 -33 47 0 78 22 78 54 0 20 3 21 117 16 l118 -5 3 -242 3 -243 -121 0 -120
0 0 128 c0 155 -8 172 -76 172 l-44 0 0 -150 0 -150 -120 0 -120 0 0 248 0
247 117 -5 118 -5 3 -32z"/>
<path d="M1160 430 l0 -90 40 0 c56 0 80 26 80 88 0 68 -20 92 -76 92 l-44 0
0 -90z"/>
</g>
</svg>
