<?xml version="1.0" standalone="no"?>
<!DOCTYPE svg PUBLIC "-//W3C//DTD SVG 20010904//EN"
 "http://www.w3.org/TR/2001/REC-SVG-20010904/DTD/svg10.dtd">
<svg version="1.0" xmlns="http://www.w3.org/2000/svg"
 width="426.000000pt" height="114.000000pt" viewBox="0 0 426.000000 114.000000"
 preserveAspectRatio="xMidYMid meet">

<g transform="translate(0.000000,114.000000) scale(0.100000,-0.100000)"
fill="#ffffff" stroke="none">
<path d="M245 976 c-37 -16 -70 -52 -84 -89 -6 -16 -11 -89 -11 -164 0 -119 3
-140 21 -173 36 -63 79 -80 207 -80 118 0 137 -7 130 -52 -3 -23 -5 -23 -171
-28 -134 -4 -170 -8 -177 -20 -17 -26 -12 -166 6 -184 13 -14 54 -16 292 -16
316 0 323 1 377 81 l30 44 5 -53 c3 -31 12 -57 20 -62 8 -6 139 -10 290 -10
314 0 321 1 375 81 l30 44 5 -53 c3 -31 12 -57 20 -62 8 -6 77 -10 152 -10
111 0 140 3 152 16 14 13 16 55 16 302 0 279 6 339 30 302 6 -10 33 -17 87
-20 l78 -5 5 -288 c4 -241 7 -289 20 -297 8 -5 77 -10 152 -10 111 0 140 3
152 16 14 13 16 53 16 283 0 311 -3 301 92 301 41 0 61 5 79 21 l24 21 5 -312
c4 -262 7 -312 20 -320 8 -5 77 -10 152 -10 137 0 137 0 163 27 14 15 25 23
25 16 0 -6 7 -19 16 -27 12 -13 41 -16 154 -16 139 0 139 0 165 27 14 15 25
23 25 16 0 -6 7 -19 16 -27 12 -13 41 -16 154 -16 139 0 139 0 165 27 14 15
25 23 25 16 0 -6 7 -19 16 -27 23 -23 285 -23 308 0 14 13 16 59 16 351 0 326
-1 336 -22 374 -14 25 -37 46 -63 59 -38 18 -62 20 -311 20 -152 0 -276 -4
-284 -10 -10 -6 -17 -32 -20 -72 l-5 -63 -29 52 c-48 87 -69 93 -334 93 -131
0 -232 -4 -249 -11 -37 -14 -79 -54 -94 -91 -15 -36 -29 -20 -29 34 0 69 5 68
-348 68 -174 0 -323 -4 -330 -9 -7 -4 -17 -21 -21 -37 l-8 -29 -12 30 c-7 16
-18 33 -24 37 -17 11 -279 9 -297 -2 -10 -6 -17 -32 -20 -72 l-5 -63 -29 52
c-50 90 -63 93 -382 93 -148 0 -275 -4 -282 -9 -7 -4 -17 -21 -21 -37 l-8 -29
-12 30 c-7 16 -18 33 -24 37 -7 4 -133 8 -282 7 -203 0 -277 -3 -300 -13z
m623 -363 l-3 -68 -18 35 c-46 91 -72 104 -221 110 -119 5 -121 5 -124 29 -7
44 18 51 173 51 130 0 144 2 166 21 l24 21 3 -66 c2 -36 2 -96 0 -133z m-429
73 c16 -39 32 -44 163 -48 l128 -3 32 -33 33 -32 3 -124 c4 -140 -6 -173 -61
-206 -30 -18 -52 -20 -284 -20 l-253 0 0 60 0 60 160 0 c147 0 162 2 180 20
25 25 27 105 5 137 -14 20 -25 22 -145 25 l-130 3 -32 32 c-28 28 -33 41 -36
95 l-4 63 116 -3 c110 -3 117 -4 125 -26z m719 -13 c3 -31 5 -33 44 -33 47 0
78 22 78 54 0 20 3 21 117 16 l118 -5 3 -193 c3 -214 -2 -237 -61 -272 -30
-18 -52 -20 -284 -20 l-253 0 0 248 0 247 117 -5 118 -5 3 -32z m720 -210 l2
-243 -120 0 -120 0 0 248 0 247 117 -5 118 -5 3 -242z m540 0 l2 -243 -120 0
-120 0 0 248 0 247 117 -5 118 -5 3 -242z m540 210 l3 -33 60 0 59 0 0 38 0
37 117 -5 118 -5 3 -242 2 -243 -120 0 -120 0 0 150 0 150 -60 0 -60 0 0 -150
0 -150 -120 0 -120 0 0 248 0 247 117 -5 118 -5 3 -32z m720 0 c3 -31 5 -33
44 -33 47 0 78 22 78 54 0 20 3 21 117 16 l118 -5 3 -242 3 -243 -121 0 -120
0 0 128 c0 155 -8 172 -76 172 l-44 0 0 -150 0 -150 -120 0 -120 0 0 248 0
247 117 -5 118 -5 3 -32z"/>
<path d="M1160 430 l0 -90 40 0 c56 0 80 26 80 88 0 68 -20 92 -76 92 l-44 0
0 -90z"/>
</g>
</svg>
<path d="M60.6175 25C62.4484 25 64.0416 24.1678 64.5409 22.9551L64.7549 24.6909H67.2992V17.5575C67.2992 14.2999 65.3494 12.5878 62.1869 12.5878C59.0006 12.5878 56.9081 14.2523 56.9081 16.7966H59.3811C59.3811 15.5601 60.3322 14.8468 62.0442 14.8468C63.5184 14.8468 64.4696 15.4888 64.4696 17.0819V17.3435L60.9504 17.605C58.1684 17.819 56.599 19.1744 56.599 21.3382C56.599 23.5495 58.1208 25 60.6175 25ZM61.5686 22.8124C60.2609 22.8124 59.5475 22.2893 59.5475 21.2193C59.5475 20.2682 60.2371 19.6737 62.0442 19.5073L64.4934 19.317V19.9353C64.4934 21.7424 63.352 22.8124 61.5686 22.8124Z" fill="white"/>
<path d="M71.5995 10.5905C72.5506 10.5905 73.3353 9.80581 73.3353 8.83091C73.3353 7.85601 72.5506 7.09511 71.5995 7.09511C70.6008 7.09511 69.8161 7.85601 69.8161 8.83091C69.8161 9.80581 70.6008 10.5905 71.5995 10.5905ZM70.149 24.6909H73.0499V12.9445H70.149V24.6909Z" fill="white"/>
<path d="M78.9718 24.6909V7H76.0946V24.6909H78.9718Z" fill="white"/>
<path d="M83.9408 24.6909L85.3437 20.6724H91.8352L93.2381 24.6909H96.4481L90.1707 7.30912H87.0558L80.7784 24.6909H83.9408ZM88.2209 12.4927C88.3873 12.0172 88.53 11.4941 88.6013 11.1612C88.6489 11.5178 88.8153 12.041 88.958 12.4927L90.9554 18.1044H86.2473L88.2209 12.4927Z" fill="white"/>
<path d="M102.493 25C104.276 25 105.798 24.2153 106.511 22.86L106.701 24.6909H109.364V7H106.487V14.4425C105.75 13.2774 104.3 12.5878 102.659 12.5878C99.1161 12.5878 96.9761 15.2034 96.9761 18.8653C96.9761 22.5033 99.0923 25 102.493 25ZM103.135 22.3369C101.113 22.3369 99.877 20.8626 99.877 18.7701C99.877 16.6777 101.113 15.1797 103.135 15.1797C105.156 15.1797 106.464 16.6539 106.464 18.7701C106.464 20.8864 105.156 22.3369 103.135 22.3369Z" fill="white"/>
<path d="M115.289 24.6909V18.033C115.289 16.1308 116.406 15.2272 117.785 15.2272C119.164 15.2272 120.044 16.107 120.044 17.7477V24.6909H122.945V18.033C122.945 16.107 124.015 15.2034 125.418 15.2034C126.797 15.2034 127.701 16.0832 127.701 17.7715V24.6909H130.578V17.0106C130.578 14.2999 129.008 12.5878 126.155 12.5878C124.372 12.5878 122.993 13.4676 122.398 14.823C121.78 13.4676 120.543 12.5878 118.76 12.5878C117.072 12.5878 115.883 13.3487 115.289 14.3236L115.051 12.9445H112.388V24.6909H115.289Z" fill="white"/>
<path d="M134.876 10.5905C135.827 10.5905 136.612 9.80581 136.612 8.83091C136.612 7.85601 135.827 7.09511 134.876 7.09511C133.877 7.09511 133.093 7.85601 133.093 8.83091C133.093 9.80581 133.877 10.5905 134.876 10.5905ZM133.426 24.6909H136.327V12.9445H133.426V24.6909Z" fill="white"/>
<path d="M142.225 24.6909V18.3659C142.225 16.4637 143.318 15.2272 145.102 15.2272C146.6 15.2272 147.575 16.1783 147.575 18.1519V24.6909H150.476V17.4624C150.476 14.4188 148.954 12.5878 146.005 12.5878C144.412 12.5878 142.985 13.2774 142.248 14.4663L142.011 12.9445H139.324V24.6909H142.225Z" fill="white"/>
<defs>
<filter id="filter0_d_1608_324" x="7.42383" y="6.2373" width="5.36841" height="20.5264" filterUnits="userSpaceOnUse" color-interpolation-filters="sRGB">
<feFlood flood-opacity="0" result="BackgroundImageFix"/>
<feColorMatrix in="SourceAlpha" type="matrix" values="0 0 0 0 0 0 0 0 0 0 0 0 0 0 0 0 0 0 127 0" result="hardAlpha"/>
<feOffset dy="0.5"/>
<feGaussianBlur stdDeviation="0.5"/>
<feComposite in2="hardAlpha" operator="out"/>
<feColorMatrix type="matrix" values="0 0 0 0 0 0 0 0 0 0 0 0 0 0 0 0 0 0 0.12 0"/>
<feBlend mode="normal" in2="BackgroundImageFix" result="effect1_dropShadow_1608_324"/>
<feBlend mode="normal" in="SourceGraphic" in2="effect1_dropShadow_1608_324" result="shape"/>
</filter>
<filter id="filter1_d_1608_324" x="13.7422" y="12.9727" width="5.36841" height="13.7896" filterUnits="userSpaceOnUse" color-interpolation-filters="sRGB">
<feFlood flood-opacity="0" result="BackgroundImageFix"/>
<feColorMatrix in="SourceAlpha" type="matrix" values="0 0 0 0 0 0 0 0 0 0 0 0 0 0 0 0 0 0 127 0" result="hardAlpha"/>
<feOffset dy="0.5"/>
<feGaussianBlur stdDeviation="0.5"/>
<feComposite in2="hardAlpha" operator="out"/>
<feColorMatrix type="matrix" values="0 0 0 0 0 0 0 0 0 0 0 0 0 0 0 0 0 0 0.12 0"/>
<feBlend mode="normal" in2="BackgroundImageFix" result="effect1_dropShadow_1608_324"/>
<feBlend mode="normal" in="SourceGraphic" in2="effect1_dropShadow_1608_324" result="shape"/>
</filter>
<filter id="filter2_d_1608_324" x="20.0547" y="8.76172" width="5.36841" height="18" filterUnits="userSpaceOnUse" color-interpolation-filters="sRGB">
<feFlood flood-opacity="0" result="BackgroundImageFix"/>
<feColorMatrix in="SourceAlpha" type="matrix" values="0 0 0 0 0 0 0 0 0 0 0 0 0 0 0 0 0 0 127 0" result="hardAlpha"/>
<feOffset dy="0.5"/>
<feGaussianBlur stdDeviation="0.5"/>
<feComposite in2="hardAlpha" operator="out"/>
<feColorMatrix type="matrix" values="0 0 0 0 0 0 0 0 0 0 0 0 0 0 0 0 0 0 0.12 0"/>
<feBlend mode="normal" in2="BackgroundImageFix" result="effect1_dropShadow_1608_324"/>
<feBlend mode="normal" in="SourceGraphic" in2="effect1_dropShadow_1608_324" result="shape"/>
</filter>
</defs>
</svg>
